<svg id="Layer_1" data-name="Layer 1" xmlns="http://www.w3.org/2000/svg" viewBox="0 0 763.88 996"><title>W</title><path fill="#ffffff" d="M820.82,847.11,578.06,251.75c35.5,0,68.33-.76,101.06.74,5.48.25,12.77,9.36,15.42,15.91C734,365.84,772.75,463.54,811.7,561.17c3.07,7.69,6.24,15.34,11.29,27.73,46.31-114.27,90.86-224.21,136.88-337.75l45.85,114L1140.59,42c14.27,4.44,14.42,4.51,9,17.45q-77.43,186-155,371.86-83.83,201.06-167.72,402.1C825.54,836.75,824,840,820.82,847.11Z" transform="translate(-578.06 -42)"/><path fill="#ffffff" d="M987.75,589.57c-11,26.08-20.3,48.17-29.53,70.31Q882.14,842.45,806.07,1025c-3.28,7.87-4.67,19.79-19.72,8.07,81.88-196.62,164-393.79,247.93-595.4,20.76,51.61,40.07,99.65,60.75,151.08,15.91-39.06,30.57-74.83,45.07-110.67,28.49-70.41,57.15-140.75,85.1-211.38,4.48-11.32,10-15.78,22.54-15.35,30.33,1,60.72.33,94.2.33-82.8,198.36-164.76,394.72-248.72,595.85C1057.45,760,1023.45,676.87,987.75,589.57Z" transform="translate(-578.06 -42)"/></svg>